<svg width="100%" height="100%" class="w-20" viewBox="0 0 871 871" version="1.1"
    xmlns="http://www.w3.org/2000/svg"
    xmlns:xlink="http://www.w3.org/1999/xlink" xml:space="preserve"
    xmlns:serif="http://www.serif.com/" style="fill-rule:evenodd;clip-rule:evenodd;stroke-linejoin:round;stroke-miterlimit:2;">
    <path d="M158.507,288.713c1.39,2.27 0.518,15.97 0.493,19.494c2.83,5.29 10.856,12.659 16.061,15.813c0.09,1.49 0.228,1.953 1.261,3.043c2.175,2.296 4.687,4.353 6.935,6.595c6.387,6.442 12.722,12.935 19.004,19.48c14.309,15.136 28.371,30.498 42.188,46.086c3.269,3.848 7.255,7.643 10.222,11.669c-4.505,4.684 -13.357,6.708 -16.552,11.313c4.033,10.985 5.46,22.98 7.873,34.413c4.089,19.366 8.439,38.7 12.255,58.122c1.561,7.945 3.248,24.934 7.02,31.067c-5.746,3.575 -28.068,13.856 -31.017,16.641l0.119,1.262c2.003,3.146 5.567,5.895 8.215,8.543c11.451,11.45 23.374,22.376 35.181,33.457c34.689,33.088 69.689,65.844 104.999,98.269c4.797,3.667 9.162,8.244 13.588,12.361c7.555,6.912 15.023,13.917 22.404,21.015c4.655,4.531 9.328,9.751 14.54,13.603c1.05,0.776 1.533,1.016 2.836,0.994l0.276,0.397c4.369,-3.328 8.567,-8.056 12.635,-11.83l31.493,-29.43l105.507,-99.182c8.056,-7.595 44.06,-39.915 47.466,-46.567c0.964,-7.894 3.943,-16.267 5.989,-24.005c4.644,-17.702 9.45,-35.361 14.418,-52.975l8.252,-30.482c1.468,-5.447 2.648,-11.327 4.786,-16.537l-0.25,-0.079c3.641,-12.542 8.418,-25.073 13.509,-37.105c4.004,-9.463 10.385,-19.948 12.029,-30.129l0.919,0.056l0.771,-1.064c8.072,1.085 16.277,1.634 24.388,2.397c5.027,0.473 10.309,1.316 15.339,1.408l0.48,0.069c4.656,11.42 9.79,22.466 15.009,33.631c5.039,-1.917 10.201,-3.493 15.236,-5.441c8.148,-3.151 16.294,-6.744 24.699,-9.154c4.236,-2.181 8.629,-4.201 13.162,-5.673l0.94,-0.632c2.56,1.649 5.028,0.653 7.647,1.958l-18.491,35.129c-4.711,8.738 -11.061,18.388 -13.933,27.841c-6.862,10.948 -12.147,23.028 -18.217,34.438l-36.194,67.502c-5.623,10.602 -12.263,25.642 -19.162,34.98c-7.666,10.374 -20.833,21.156 -30.373,30.42c-15.525,15.076 -46.519,45.408 -46.519,45.408l-78.628,74.778c-7.947,2.197 -108.702,108.04 -115.993,107.827c-8.235,-0.242 -16.614,-18.551 -26.228,-21.179l-167.102,-161.616c-0,0 -14.697,-13.739 -22.116,-20.48l-29.766,-27.365c-5.932,-5.375 -12.994,-10.386 -18.064,-16.593c-7.906,-9.681 -15.952,-27.548 -21.972,-38.999l-37.221,-71.1c-6.298,-12.101 -12.044,-24.748 -19.046,-36.447c-2.298,-9.11 -9.954,-21.049 -14.442,-29.496c-7.644,-14.39 -15.322,-28.737 -22.32,-43.457c10.694,-11.003 23.635,-19.926 35.369,-29.784c19.959,-16.762 40.052,-33.363 60.277,-49.802c2.644,1.601 5.26,3.245 7.85,4.931l-0.034,-19.807Z" style="fill:url(#_Linear1);fill-rule:nonzero;"/>
    <path d="M147.671,325.427c17.997,16.975 34.082,35.986 51.021,53.999l19.67,20.694c6.217,6.442 12.341,12.431 17.633,19.704c-9.998,-4.052 -24.834,-14.342 -34.424,-20.314c-10.252,-6.338 -20.443,-12.772 -30.573,-19.302c-5.666,-3.677 -11.464,-7.196 -16.751,-11.414c0.863,-10.021 -4.774,-32.51 -6.576,-43.367Z" style="fill:#267d78;fill-rule:nonzero;"/>
    <path d="M73.605,386.378c18.336,-15.773 36.895,-31.279 55.676,-46.52c5.044,-4.118 12.761,-11.685 18.39,-14.431c1.802,10.857 7.439,33.346 6.576,43.367c-0.421,1.66 -0.806,3.336 -1.361,4.958c-15.676,3.71 -31.362,7.707 -47.141,10.951c-8.258,1.698 -16.691,2.517 -24.906,4.417c-2.398,-0.95 -4.809,-1.864 -7.234,-2.742Z" style="fill:#45e6d0;fill-rule:nonzero;"/>
    <path d="M324.864,727.876c-1.57,-3.866 -6.87,-5.892 -7.566,-9.978l0.954,0.263c0.195,-0.108 0.373,-0.257 0.586,-0.325c7.791,-2.516 15.921,-3.028 23.997,-4.52c8.39,-1.549 16.441,-3.741 24.697,-5.783c3.31,-0.819 7.746,-1.314 10.77,-2.871c1.178,-0.607 1.202,-0.848 1.605,-2.034c0.764,0.592 1.288,1.048 2.257,1.263c0.198,0.044 0.401,0.059 0.6,0.089c4.797,3.667 9.162,8.244 13.588,12.361c7.555,6.912 15.023,13.917 22.404,21.015c4.655,4.531 9.328,9.751 14.54,13.603c1.05,0.776 1.533,1.016 2.836,0.994l0.276,0.397c-1.404,5.368 -0.678,11.3 -0.405,16.781l-0.778,-0.68c-6.316,9.843 -11.676,29.877 -24.706,32.729c-6.602,1.445 -8.472,-1.841 -12.043,-1.699c-5.467,-3.528 -10.269,-9.469 -14.89,-14.053l-26.867,-26.468l-20.895,-20.228c-3.642,-3.508 -7.741,-6.965 -10.96,-10.856Z" style="fill:#598194;fill-rule:nonzero;"/>
    <path d="M154.247,368.794c5.287,4.218 11.085,7.737 16.751,11.414c10.13,6.53 20.321,12.964 30.573,19.302c9.59,5.972 24.426,16.262 34.424,20.314l0.833,0.806l1.291,1.576c4.033,10.985 5.46,22.98 7.873,34.413c4.089,19.366 8.439,38.7 12.255,58.122c1.561,7.945 3.248,24.934 7.02,31.067c-5.746,3.575 -28.068,13.856 -31.017,16.641l0.119,1.262c2.003,3.146 5.567,5.895 8.215,8.543c11.451,11.45 23.374,22.376 35.181,33.457c34.689,33.088 69.689,65.844 104.999,98.269c-0.199,-0.03 -0.402,-0.045 -0.6,-0.089c-0.969,-0.215 -1.493,-0.671 -2.257,-1.263c-0.403,1.186 -0.427,1.427 -1.605,2.034c-3.024,1.557 -7.46,2.052 -10.77,2.871c-8.256,2.042 -16.307,4.234 -24.697,5.783c-8.076,1.492 -16.206,2.004 -23.997,4.52c-0.213,0.068 -0.391,0.217 -0.586,0.325l-0.954,-0.263c0.696,4.086 5.996,6.112 7.566,9.978c-8.608,-7.555 -16.707,-15.892 -24.949,-23.853l-48.868,-47.27c-12.068,-11.575 -24.212,-23.071 -36.431,-34.488c-9.584,-8.945 -19.225,-17.531 -28.19,-27.128c-4.586,-4.293 -7.982,-10.915 -11.107,-16.336c-26.195,-45.444 -49.738,-92.641 -74.241,-139.027l-16.488,-31.24c-3.623,-6.784 -9.082,-14.727 -10.985,-22.156c2.425,0.878 4.836,1.792 7.234,2.742c8.215,-1.9 16.648,-2.719 24.906,-4.417c15.779,-3.244 31.465,-7.241 47.141,-10.951c0.555,-1.622 0.94,-3.298 1.361,-4.958Z" style="fill:#6da0a8;fill-rule:nonzero;"/>
    <path d="M152.886,373.752c-0.169,8.358 -3.16,17.598 -4.709,25.838c-1.251,6.659 -1.783,13.659 -3.574,20.191c-12.771,-6.182 -25.522,-12.488 -38.394,-18.451c-8.136,-3.77 -18.039,-7.121 -25.37,-12.21c8.215,-1.9 16.648,-2.719 24.906,-4.417c15.779,-3.244 31.465,-7.241 47.141,-10.951Z" style="fill:#a0dcda;fill-rule:nonzero;"/>
    <path d="M236.828,420.63l1.291,1.576c4.033,10.985 5.46,22.98 7.873,34.413c4.089,19.366 8.439,38.7 12.255,58.122c1.561,7.945 3.248,24.934 7.02,31.067c-5.746,3.575 -28.068,13.856 -31.017,16.641l-1.814,-1.768c-3.523,-9.103 -4.866,-19.58 -7.168,-29.084l-11.112,-46.198c-2.908,-12.501 -5.491,-24.989 -8.884,-37.378c3.221,-3.541 7.469,-6.534 11.133,-9.624c6.923,-5.79 13.731,-11.712 20.423,-17.767Z" style="fill:#0b243a;fill-rule:nonzero;"/>
    <path d="M126.103,452.549c9.902,9.132 18.727,19.969 28.09,29.705c14.159,14.723 29.006,28.767 43.375,43.278c4.743,4.792 31.13,34.181 34.868,35.149l1.814,1.768l0.119,1.262c2.003,3.146 5.567,5.895 8.215,8.543c11.451,11.45 23.374,22.376 35.181,33.457c34.689,33.088 69.689,65.844 104.999,98.269c-0.199,-0.03 -0.402,-0.045 -0.6,-0.089c-0.969,-0.215 -1.493,-0.671 -2.257,-1.263c-0.403,1.186 -0.427,1.427 -1.605,2.034c-3.024,1.557 -7.46,2.052 -10.77,2.871c-8.256,2.042 -16.307,4.234 -24.697,5.783c-8.076,1.492 -16.206,2.004 -23.997,4.52c-0.213,0.068 -0.391,0.217 -0.586,0.325l-0.954,-0.263c0.696,4.086 5.996,6.112 7.566,9.978c-8.608,-7.555 -16.707,-15.892 -24.949,-23.853l-48.868,-47.27c-12.068,-11.575 -24.212,-23.071 -36.431,-34.488c-9.584,-8.945 -19.225,-17.531 -28.19,-27.128c0.947,-7.472 -52.755,-127.21 -60.323,-142.588Z" style="fill:url(#_Linear2);fill-rule:nonzero;"/>
    <path d="M693.932,373.021c8.072,1.085 16.277,1.634 24.388,2.397c5.027,0.473 10.309,1.316 15.339,1.408l0.48,0.069c4.656,11.42 9.79,22.466 15.009,33.631c5.039,-1.917 10.201,-3.493 15.236,-5.441c8.148,-3.151 16.294,-6.744 24.699,-9.154c4.236,-2.181 8.629,-4.201 13.162,-5.673c-3.125,9.261 -13.817,25.019 -18.865,34.31c-21.308,39.21 -42.309,77.258 -65.007,115.708l-15.415,25.943c-3.691,6.177 -7.224,12.567 -11.693,18.225c-5.421,6.865 -12.327,12.871 -18.644,18.905c-8.513,8.131 -16.981,16.308 -25.403,24.531l-93.909,91.783c-31.612,30.979 -62.814,62.435 -94.722,93.103c-5.789,5.563 -16.845,18.458 -22.71,22.166c-4.595,-1.159 -31.931,-29.907 -37.401,-35.451c3.571,-0.142 5.441,3.144 12.043,1.699c13.03,-2.852 18.39,-22.886 24.706,-32.729l0.778,0.68c-0.273,-5.481 -0.999,-11.413 0.405,-16.781c4.369,-3.328 8.567,-8.056 12.635,-11.83l31.493,-29.43l105.507,-99.182c8.056,-7.595 44.06,-39.915 47.466,-46.567c0.964,-7.894 3.943,-16.267 5.989,-24.005c4.644,-17.702 9.45,-35.361 14.418,-52.975l8.252,-30.482c1.468,-5.447 2.648,-11.327 4.786,-16.537l-0.25,-0.079c3.641,-12.542 8.418,-25.073 13.509,-37.105c4.004,-9.463 10.385,-19.948 12.029,-30.129l0.919,0.056l0.771,-1.064Z" style="fill:#0b243a;fill-rule:nonzero;"/>
    <path d="M398.476,799.481c3.571,-0.142 5.441,3.144 12.043,1.699c13.03,-2.852 18.39,-22.886 24.706,-32.729l0.778,0.68c0.386,10.343 -0.03,20.69 0.024,31.038c0.058,11.493 0.61,23.303 -0.15,34.763c-4.595,-1.159 -31.931,-29.907 -37.401,-35.451Z" style="fill:#6da0a8;fill-rule:nonzero;"/>
    <path d="M693.932,373.021c8.072,1.085 16.277,1.634 24.388,2.397c5.027,0.473 10.309,1.316 15.339,1.408l0.48,0.069c4.656,11.42 9.79,22.466 15.009,33.631c5.039,-1.917 10.201,-3.493 15.236,-5.441c8.148,-3.151 16.294,-6.744 24.699,-9.154c-4.341,10.92 -19.681,20.366 -26.191,31.886c-3.32,5.877 -5.688,12.33 -8.337,18.526c-4.199,9.815 -8.462,19.682 -13.083,29.306c-10.147,20.874 -20.886,41.439 -32.218,61.694c-7.843,14.282 -15.601,28.641 -24.028,42.589c10.25,-33.539 28.344,-70.808 44.232,-102.157c5.195,-10.25 11.933,-19.742 16.432,-30.325c-10.079,12.307 -21.534,23.659 -32.538,35.139l-38.154,40.229c-6.775,7.137 -35.547,39.319 -41.689,42.523c0.964,-7.894 3.943,-16.267 5.989,-24.005c4.644,-17.702 9.45,-35.361 14.418,-52.975l8.252,-30.482c1.468,-5.447 2.648,-11.327 4.786,-16.537l-0.25,-0.079c3.641,-12.542 8.418,-25.073 13.509,-37.105c4.004,-9.463 10.385,-19.948 12.029,-30.129l0.919,0.056l0.771,-1.064Z" style="fill:#0a474d;fill-rule:nonzero;"/>
    <path d="M693.932,373.021c8.072,1.085 16.277,1.634 24.388,2.397c5.027,0.473 10.309,1.316 15.339,1.408l0.48,0.069c4.656,11.42 9.79,22.466 15.009,33.631c-17.048,6.319 -33.881,13.111 -50.826,19.691c-10.08,3.913 -20.864,8.542 -31.368,11.125l-0.25,-0.079c3.641,-12.542 8.418,-25.073 13.509,-37.105c4.004,-9.463 10.385,-19.948 12.029,-30.129l0.919,0.056l0.771,-1.064Z" style="fill:#6da0a8;fill-rule:nonzero;"/>
    <path d="M433.201,20.926l38.133,31.604l144.251,121.871c22.169,18.396 44.225,36.927 66.167,55.595c9.968,8.459 20.51,16.629 30.009,25.569c-0.824,15.964 -0.256,32.09 -0.418,48.085c9.691,7.234 73.136,56.083 77.689,56.842c3.682,5.732 20.529,16.376 26.756,21.741c-1.627,3.126 -3.207,6.291 -4.956,9.351c-2.619,-1.305 -5.087,-0.309 -7.647,-1.958l-0.94,0.632c-4.533,1.472 -8.926,3.492 -13.162,5.673c-8.405,2.41 -16.551,6.003 -24.699,9.154c-5.035,1.948 -10.197,3.524 -15.236,5.441c-5.219,-11.165 -10.353,-22.211 -15.009,-33.631l-0.48,-0.069c-5.03,-0.092 -10.312,-0.935 -15.339,-1.408c-8.111,-0.763 -16.316,-1.312 -24.388,-2.397l-0.771,1.064l-0.919,-0.056c-1.644,10.181 -8.025,20.666 -12.029,30.129c-5.091,12.032 -9.868,24.563 -13.509,37.105l0.25,0.079c-2.138,5.21 -3.318,11.09 -4.786,16.537l-8.252,30.482c-4.968,17.614 -9.774,35.273 -14.418,52.975c-2.046,7.738 -5.025,16.111 -5.989,24.005c-3.406,6.652 -39.41,38.972 -47.466,46.567l-105.507,99.182l-31.493,29.43c-4.068,3.774 -8.266,8.502 -12.635,11.83l-0.276,-0.397c-1.303,0.022 -1.786,-0.218 -2.836,-0.994c-5.212,-3.852 -9.885,-9.072 -14.54,-13.603c-7.381,-7.098 -14.849,-14.103 -22.404,-21.015c-4.426,-4.117 -8.791,-8.694 -13.588,-12.361c-35.31,-32.425 -70.31,-65.181 -104.999,-98.269c-11.807,-11.081 -23.73,-22.007 -35.181,-33.457c-2.648,-2.648 -6.212,-5.397 -8.215,-8.543l-0.119,-1.262c2.949,-2.785 25.271,-13.066 31.017,-16.641c-3.772,-6.133 -5.459,-23.122 -7.02,-31.067c-3.816,-19.422 -8.166,-38.756 -12.255,-58.122c-2.413,-11.433 -3.84,-23.428 -7.873,-34.413c3.195,-4.605 12.047,-6.629 16.552,-11.313c-2.967,-4.026 -6.953,-7.821 -10.222,-11.669c-13.817,-15.588 -27.879,-30.95 -42.188,-46.086c-6.282,-6.545 -12.617,-13.038 -19.004,-19.48c-2.248,-2.242 -4.76,-4.299 -6.935,-6.595c-1.033,-1.09 -1.171,-1.553 -1.261,-3.043c-5.205,-3.154 -13.231,-10.523 -16.061,-15.813c0.025,-3.524 0.897,-17.224 -0.493,-19.494l-0.153,-32.908l143.313,-121.763c10.306,-8.87 20.664,-17.677 31.076,-26.422c5.793,-4.901 12.775,-9.885 17.561,-15.755c4.836,-1.853 74.882,-63.438 82.897,-70.939Z" style="fill:url(#_Linear3);fill-rule:nonzero;"/>
    <path d="M264.648,280.806c0.482,0.161 0.953,0.438 1.409,0.663c1.266,4.121 0.158,11.355 -0.111,15.78l-0.761,-0.468l0.488,1.641c-1.284,-1.064 -2.893,-1.965 -3.375,-3.575c-0.151,-1.035 -0.417,-1.929 -0.761,-2.917l-0.714,0.005l-0.529,1.915l-0.576,0.324c-0.076,-0.131 -0.17,-0.253 -0.228,-0.393c-0.998,-2.421 0.628,-7.996 1.7,-10.322c0.268,0.02 0.537,0.085 0.805,0.06c1.432,-0.129 1.915,-1.607 2.653,-2.713Z" style="fill:#405874;fill-rule:nonzero;"/>
    <path d="M461.089,130.34c5.679,3.913 10.856,8.699 16.127,13.145l25.75,21.715c26.69,22.528 53.55,44.853 80.578,66.975c11.791,9.695 25.005,22.74 38.223,30.114l0.597,-0.219l0.996,1.023c-0.44,4.347 0.01,9.061 0.033,13.449c0.055,10.296 0.192,20.613 0.046,30.908c-0.244,17.268 -2.185,34.394 -1.933,51.712c-1.562,12.03 -2.81,24.754 -3.067,36.88l-0.782,4.229c-1.126,2.373 -2.513,4.307 -4.572,5.969c-1.01,-42.23 -2.656,-84.577 -2.54,-126.813l-124.919,-101.201c-10.475,-8.516 -20.863,-17.136 -31.163,-25.862c-5.447,-4.576 -10.979,-9.818 -16.824,-13.832l-0.577,-0.39l0.088,-0.394l-0.455,-0.361c1.991,0.93 3.641,2.501 5.33,3.886c0.648,-1.288 1.358,-2.542 2.129,-3.76c6.939,-11.06 10.217,0.486 17.391,-1.129c0.087,-0.138 0.195,-0.265 0.26,-0.414c0.714,-1.643 -0.153,-4.04 -0.716,-5.63Z" style="fill:#405874;fill-rule:nonzero;"/>
    <path d="M175.563,265.933c9.67,-0.071 19.486,-1.026 29.149,-1.559c14.156,-0.783 28.37,-1.294 42.49,-2.569c-0.664,18.514 -1.072,37.03 -1.935,55.538l-1.432,31.65c-0.573,12.478 -2.031,25.258 0.889,37.547c1.452,2.874 2.967,7.43 1.562,10.603c-0.434,0.978 -0.954,1.518 -1.837,2.081c-13.817,-15.588 -27.879,-30.95 -42.188,-46.086c-6.282,-6.545 -12.617,-13.038 -19.004,-19.48c-2.248,-2.242 -4.76,-4.299 -6.935,-6.595c-1.033,-1.09 -1.171,-1.553 -1.261,-3.043c0.516,-14.787 -0.367,-29.511 -0.724,-44.278c-0.122,-5.037 0.53,-10.138 0.222,-15.13l1.004,1.321Z" style="fill:#6da0a8;fill-rule:nonzero;"/>
    <path d="M174.559,264.612l1.004,1.321c3.759,4.955 6.339,11.716 9.639,17.134c16.029,26.307 30.821,53.48 46.005,80.286c2.661,4.698 10.366,20.045 13.517,23.187c1.452,2.874 2.967,7.43 1.562,10.603c-0.434,0.978 -0.954,1.518 -1.837,2.081c-13.817,-15.588 -27.879,-30.95 -42.188,-46.086c-6.282,-6.545 -12.617,-13.038 -19.004,-19.48c-2.248,-2.242 -4.76,-4.299 -6.935,-6.595c-1.033,-1.09 -1.171,-1.553 -1.261,-3.043c0.516,-14.787 -0.367,-29.511 -0.724,-44.278c-0.122,-5.037 0.53,-10.138 0.222,-15.13Z" style="fill:#405874;fill-rule:nonzero;"/>
    <path d="M434.407,156.973c0.98,0.927 1.961,1.684 2.572,2.902c8.172,4.997 15.846,12.331 23.29,18.404l42.503,34.439l52.012,41.813c11.73,9.309 24.35,18.383 35.092,28.828c1.493,0.817 2.576,1.641 3.802,2.817l0.025,10.392c-10.937,-0.076 -22.13,-2.28 -32.975,-3.653c-23.59,-2.985 -47.374,-6.484 -71.066,-8.347c-5.969,-6.989 -15.789,-31.845 -20.337,-41.646c-12.408,-26.391 -24.674,-52.849 -36.798,-79.371c1.021,-2.136 1.426,-4.277 1.88,-6.578Z" style="fill:#267d78;fill-rule:nonzero;"/>
    <path d="M434.407,156.973c0.98,0.927 1.961,1.684 2.572,2.902c4.692,10.323 12.854,19.533 19.369,28.77c7.125,10.103 13.856,20.572 20.539,30.973c6.68,10.554 13.119,21.254 19.316,32.1c3.419,5.952 6.586,12.408 10.505,18.024c16.956,3.47 34.018,5.436 51.063,8.278c10.401,1.735 21.564,5.627 32.105,5.339c1.493,0.817 2.576,1.641 3.802,2.817l0.025,10.392c-10.937,-0.076 -22.13,-2.28 -32.975,-3.653c-23.59,-2.985 -47.374,-6.484 -71.066,-8.347c-5.969,-6.989 -15.789,-31.845 -20.337,-41.646c-12.408,-26.391 -24.674,-52.849 -36.798,-79.371c1.021,-2.136 1.426,-4.277 1.88,-6.578Z" style="fill:#47a094;fill-rule:nonzero;"/>
    <path d="M489.662,284.568c23.692,1.863 47.476,5.362 71.066,8.347c10.845,1.373 22.038,3.577 32.975,3.653l0.093,27.96c0.011,5.41 0.596,11.62 -0.516,16.89c-0.01,3.251 -0.096,6.525 0.047,9.771c-0.598,6.706 -3.238,13.546 -5.193,19.977l-7.6,25.132c-8.771,29.901 -18.109,59.625 -28.011,89.17c-3.672,10.896 -6.809,23.424 -12.227,33.518c-3.664,6.824 -10.336,12.576 -15.371,18.426c-10.791,12.587 -21.458,25.278 -32.001,38.073c-11.07,13.903 -22.002,27.912 -32.798,42.028c-6.162,8.174 -15.059,22.564 -22.524,28.757c-0.721,0.599 -1.423,1.1 -2.269,1.513c-1.617,2.583 -2.612,5.429 -3.699,8.262l-85.689,-83.422c-16.17,-15.649 -31.957,-31.693 -48.453,-47.015c-2.608,-8.968 -3.57,-18.618 -5.112,-27.829l-7.896,-45.76c-2.811,-15.466 -5.718,-30.914 -8.721,-46.343c-2.269,-11.825 -5.259,-24.016 -5.427,-36.092c1.2,2.326 2.827,4.886 3.67,7.34c0.207,8.415 12.778,43.009 16.018,52.081c3.08,14.8 7.676,29.163 11.5,43.772c2.244,8.573 6.14,28.476 9.935,35.585c3.199,5.989 16.937,18.719 22.433,24.409c21.82,22.588 43.421,45.462 66.664,66.612c3.716,4.029 18.322,20.793 23.129,21.913c-2.657,-9.21 -5.973,-18.32 -8.927,-27.443c-5.123,-16.047 -10.386,-32.048 -15.788,-48.003c-1.307,-4.222 -2.653,-8.431 -4.038,-12.627c3.518,-3.253 19.781,-41.719 22.534,-47.815c2.057,-4.553 3.936,-10.264 7.056,-14.157c0.954,-1.191 1.323,-1.005 2.787,-1.155c9.023,-19.051 52.814,-150.948 55.816,-153.99c-1.672,-4.131 5.707,-24.651 6.442,-31.125l0.095,-0.413Z" style="fill:#47a094;fill-rule:nonzero;"/>
    <path d="M526.5,368.045c-0.594,7.02 -3.546,14.076 -5.618,20.787c-2.019,6.665 -3.959,13.353 -5.822,20.064c-2.717,9.659 -4.54,19.81 -7.625,29.311c-10.444,6.395 -81.058,50.61 -84.993,50.565l-0.672,-0.855c0.127,-0.698 0.238,-1.211 0.518,-1.87c4.077,-4.137 7.766,-8.689 11.687,-12.981c12.179,-13.248 24.117,-26.71 35.813,-40.387l56.712,-64.634Z" style="fill:#0a474d;fill-rule:nonzero;"/>
    <path d="M489.662,284.568c23.692,1.863 47.476,5.362 71.066,8.347c10.845,1.373 22.038,3.577 32.975,3.653l0.093,27.96c0.011,5.41 0.596,11.62 -0.516,16.89c0.014,-1.861 -0.015,-3.56 -0.364,-5.391c-4.808,-2.046 -20.733,-3.738 -26.599,-4.721c-20.996,-3.606 -41.93,-7.544 -62.801,-11.816c-6.645,-1.312 -13.951,-1.601 -20.391,-3.384c-1.672,-4.131 5.707,-24.651 6.442,-31.125l0.095,-0.413Z" style="fill:#0a474d;fill-rule:nonzero;"/>
    <path d="M398.97,545.85c5.779,-4.911 15.882,-10.027 22.59,-14.139c18.411,-11.288 36.944,-22.31 55.251,-33.774c-9.648,28.547 -19.83,56.902 -30.544,85.067c-5.55,15.017 -10.457,31.189 -17.951,45.326c-1.873,-2.24 -3.245,-4.473 -4.631,-7.034c-2.657,-9.21 -5.973,-18.32 -8.927,-27.443c-5.123,-16.047 -10.386,-32.048 -15.788,-48.003Z" style="fill:#267d78;fill-rule:nonzero;"/>
    <path d="M427.309,470.096c9.023,-19.051 52.814,-150.948 55.816,-153.99c6.582,8.436 42.494,45.985 43.759,50.868l-0.384,1.071l-56.712,64.634c-11.696,13.677 -23.634,27.139 -35.813,40.387c-3.921,4.292 -7.61,8.844 -11.687,12.981c-0.278,-5.188 3.032,-11.225 5.021,-15.951Z" style="fill:#45e6d0;fill-rule:nonzero;"/>
    <path d="M593.327,351.189c-0.598,6.706 -3.238,13.546 -5.193,19.977l-7.6,25.132c-8.771,29.901 -18.109,59.625 -28.011,89.17c-3.672,10.896 -6.809,23.424 -12.227,33.518c-3.664,6.824 -10.336,12.576 -15.371,18.426c-10.791,12.587 -21.458,25.278 -32.001,38.073c-11.07,13.903 -22.002,27.912 -32.798,42.028c-6.162,8.174 -15.059,22.564 -22.524,28.757c-0.721,0.599 -1.423,1.1 -2.269,1.513c3.068,-12.553 10.775,-28.252 15.909,-40.487l28.397,-68.086l45.56,-110.415c5.952,-14.491 10.978,-29.458 17.455,-43.701c0.09,-0.199 0.169,-0.401 0.26,-0.598c0.476,-1.024 1.233,-1.656 2.122,-2.33c8.499,-6.458 18.296,-11.983 27.289,-17.8c5.633,-3.645 15.126,-10.97 21.002,-13.177Z" style="fill:#0a474d;fill-rule:nonzero;"/>
    <path d="M434.407,156.973c-0.454,2.301 -0.859,4.442 -1.88,6.578c12.124,26.522 24.39,52.98 36.798,79.371c4.548,9.801 14.368,34.657 20.337,41.646l-0.095,0.413c-0.735,6.474 -8.114,26.994 -6.442,31.125c-3.002,3.042 -46.793,134.939 -55.816,153.99c-1.464,0.15 -1.833,-0.036 -2.787,1.155c-3.12,3.893 -4.999,9.604 -7.056,14.157c-2.753,6.096 -19.016,44.562 -22.534,47.815c1.385,4.196 2.731,8.405 4.038,12.627c5.403,15.955 10.666,31.956 15.788,48.003c2.954,9.123 6.27,18.233 8.927,27.443c-4.807,-1.12 -19.413,-17.884 -23.129,-21.913c-23.243,-21.15 -44.844,-44.024 -66.664,-66.612c-5.496,-5.69 -19.234,-18.42 -22.433,-24.409c-3.795,-7.109 -7.691,-27.012 -9.935,-35.585c-3.824,-14.609 -8.42,-28.972 -11.5,-43.772c-3.24,-9.072 -15.811,-43.666 -16.018,-52.081c-0.843,-2.454 -2.47,-5.014 -3.67,-7.34c0.728,-10.42 2.541,-21.055 3.761,-31.453c2.104,-17.925 3.882,-36.069 7.266,-53.807c4.668,-4.751 10.637,-8.848 15.768,-13.152l32.893,-27.799l69.535,-58.346c9.272,-7.79 24.808,-22.855 34.848,-28.054Z" style="fill:#45e6d0;fill-rule:nonzero;"/>
    <path d="M434.407,156.973c-0.454,2.301 -0.859,4.442 -1.88,6.578c-28.54,40.578 -57.285,81.011 -86.237,121.297c-14.64,20.183 -29.802,39.98 -44.206,60.337c-2.968,4.196 -14.59,19.333 -15.229,23.019l0.418,0.907c18.934,34.971 36.954,70.535 55.324,105.81c5.876,11.054 11.587,22.193 17.132,33.417c4.084,8.064 8.858,16.272 11.438,24.966l0.132,0.432c-9.508,-13.597 -17.735,-28.022 -26.482,-42.113l-49.762,-80.106c-6.604,-10.538 -13.77,-25.215 -21.049,-34.593c-0.843,-2.454 -2.47,-5.014 -3.67,-7.34c0.728,-10.42 2.541,-21.055 3.761,-31.453c2.104,-17.925 3.882,-36.069 7.266,-53.807c4.668,-4.751 10.637,-8.848 15.768,-13.152l32.893,-27.799l69.535,-58.346c9.272,-7.79 24.808,-22.855 34.848,-28.054Z" style="fill:#fefefe;fill-rule:nonzero;"/>
    <path d="M374.742,225.624c0.33,2.789 -39.376,55.322 -44.327,62.203c-7.763,10.79 -15.006,22.086 -23.103,32.616c-0.106,-0.45 -0.167,-0.604 -0.152,-1.124c0.141,-5.05 9.567,-42.952 11.77,-46.199c2.851,-4.199 29.811,-25.218 35.685,-30.159c6.763,-5.69 13.227,-11.841 20.127,-17.337Z" style="fill:#47a094;fill-rule:nonzero;"/>
    <path d="M352.94,406.316c4.134,-3.265 7.983,-7.366 11.984,-10.86l36.164,-31.881c29.524,-26.131 59.391,-51.987 88.479,-78.594c-0.735,6.474 -8.114,26.994 -6.442,31.125c-3.002,3.042 -46.793,134.939 -55.816,153.99c-1.464,0.15 -1.833,-0.036 -2.787,1.155c-3.12,3.893 -4.999,9.604 -7.056,14.157c-2.753,6.096 -19.016,44.562 -22.534,47.815c-3.018,-9.633 -6.593,-19.16 -9.83,-28.726l-14.445,-43.99c-5.916,-18.044 -10.947,-36.442 -17.717,-54.191Z" style="fill:#267d78;fill-rule:nonzero;"/>
    <path d="M433.201,20.926l38.133,31.604l144.251,121.871c22.169,18.396 44.225,36.927 66.167,55.595c9.968,8.459 20.51,16.629 30.009,25.569c-0.824,15.964 -0.256,32.09 -0.418,48.085c9.691,7.234 73.136,56.083 77.689,56.842c3.682,5.732 20.529,16.376 26.756,21.741c-1.627,3.126 -3.207,6.291 -4.956,9.351c-2.619,-1.305 -5.087,-0.309 -7.647,-1.958l-0.94,0.632c-4.533,1.472 -8.926,3.492 -13.162,5.673c-8.405,2.41 -16.551,6.003 -24.699,9.154c-5.035,1.948 -10.197,3.524 -15.236,5.441c-5.219,-11.165 -10.353,-22.211 -15.009,-33.631l-0.48,-0.069c-5.03,-0.092 -10.312,-0.935 -15.339,-1.408c-8.111,-0.763 -16.316,-1.312 -24.388,-2.397l-0.771,1.064l-0.919,-0.056c-1.644,10.181 -8.025,20.666 -12.029,30.129c-5.091,12.032 -9.868,24.563 -13.509,37.105l0.25,0.079c-2.138,5.21 -3.318,11.09 -4.786,16.537l-8.252,30.482c-4.968,17.614 -9.774,35.273 -14.418,52.975c-2.046,7.738 -5.025,16.111 -5.989,24.005c-3.406,6.652 -39.41,38.972 -47.466,46.567l-105.507,99.182l-31.493,29.43c-4.068,3.774 -8.266,8.502 -12.635,11.83l-0.276,-0.397c-1.303,0.022 -1.786,-0.218 -2.836,-0.994c-5.212,-3.852 -9.885,-9.072 -14.54,-13.603c-7.381,-7.098 -14.849,-14.103 -22.404,-21.015c-4.426,-4.117 -8.791,-8.694 -13.588,-12.361c-35.31,-32.425 -70.31,-65.181 -104.999,-98.269c-11.807,-11.081 -23.73,-22.007 -35.181,-33.457c-2.648,-2.648 -6.212,-5.397 -8.215,-8.543l-0.119,-1.262c2.949,-2.785 25.271,-13.066 31.017,-16.641c-3.772,-6.133 -5.459,-23.122 -7.02,-31.067c-3.816,-19.422 -8.166,-38.756 -12.255,-58.122c-2.413,-11.433 -3.84,-23.428 -7.873,-34.413c3.195,-4.605 12.047,-6.629 16.552,-11.313c2.233,2.463 3.217,5.265 4.166,8.387c4.067,13.378 5.973,27.524 8.66,41.231l15.018,76.56c8.889,8.974 18.496,17.352 27.847,25.844l31.713,29.32c26.643,24.813 52.59,50.395 79.314,75.109c2.019,1.867 7.461,7.821 9.83,8.083l0.652,-0.737c-0.144,-2.049 0.399,-5.176 1.002,-7.139c0.958,-3.119 7.054,-16.489 8.995,-18.781c1.316,0.042 2.614,1.671 3.609,2.576c0.625,-0.119 1.158,-0.294 1.716,-0.606c6.489,-3.62 12.938,-10.297 18.64,-15.11l43.653,-37.22l47.683,-40.708c5.959,-5.052 14.222,-10.021 18.936,-16.157c2.079,-2.707 3.217,-7.706 4.127,-10.983c4.055,-14.607 7.05,-29.635 10.81,-44.347c3.921,-15.34 7.657,-30.773 11.93,-46.016c3.189,-11.374 6.841,-22.61 10.113,-33.959c2.059,-1.662 3.446,-3.596 4.572,-5.969l0.782,-4.229c0.257,-12.126 1.505,-24.85 3.067,-36.88c-0.252,-17.318 1.689,-34.444 1.933,-51.712c0.146,-10.295 0.009,-20.612 -0.046,-30.908c-0.023,-4.388 -0.473,-9.102 -0.033,-13.449l-0.996,-1.023l-0.597,0.219c-13.218,-7.374 -26.432,-20.419 -38.223,-30.114c-27.028,-22.122 -53.888,-44.447 -80.578,-66.975l-25.75,-21.715c-5.271,-4.446 -10.448,-9.232 -16.127,-13.145c-6.51,-5.369 -25.911,-20.485 -29.875,-26.485c-15.291,12.604 -30.069,25.909 -45.107,38.822l-93.46,79.617c-11.509,9.688 -22.67,19.905 -34.114,29.696c-3.704,3.169 -7.419,6.954 -11.331,9.815c-14.12,1.275 -28.334,1.786 -42.49,2.569c-9.663,0.533 -19.479,1.488 -29.149,1.559l-1.004,-1.321c0.308,4.992 -0.344,10.093 -0.222,15.13c0.357,14.767 1.24,29.491 0.724,44.278c-5.205,-3.154 -13.231,-10.523 -16.061,-15.813c0.025,-3.524 0.897,-17.224 -0.493,-19.494l-0.153,-32.908l143.313,-121.763c10.306,-8.87 20.664,-17.677 31.076,-26.422c5.793,-4.901 12.775,-9.885 17.561,-15.755c4.836,-1.853 74.882,-63.438 82.897,-70.939Z" style="fill:#1f2032;fill-rule:nonzero;"/>
    <path d="M431.871,674.69c-0.144,-2.049 0.399,-5.176 1.002,-7.139c0.958,-3.119 7.054,-16.489 8.995,-18.781c1.316,0.042 2.614,1.671 3.609,2.576l6.193,5.149c-6.514,6.158 -13.114,12.223 -19.799,18.195Z" style="fill:#405874;fill-rule:nonzero;"/>
    <path d="M712.659,326.374c0.248,6.071 -12.366,32.153 -15.447,39.191c-0.968,2.21 -2.857,5.206 -3.28,7.456l-0.771,1.064l-0.919,-0.056c-2.652,1.288 -5.26,2.661 -7.822,4.121c-2.562,1.46 -5.073,3.003 -7.533,4.628c-2.461,1.626 -4.865,3.331 -7.213,5.114c-2.347,1.785 -4.633,3.645 -6.858,5.58c-6.869,5.88 -24.847,27.411 -31.287,29.499c7.427,-11.998 18.23,-22.581 27.333,-33.346c17.887,-21.149 35.602,-42.363 53.797,-63.251Z" style="fill:url(#_Linear4);fill-rule:nonzero;"/>
    <path d="M692.242,374.029c-1.644,10.181 -8.025,20.666 -12.029,30.129c-5.091,12.032 -9.868,24.563 -13.509,37.105c-13.195,-4.325 -26.258,-9.524 -39.623,-13.253c1.416,-1.73 2.959,-3.371 4.448,-5.039c6.44,-2.088 24.418,-23.619 31.287,-29.499c2.225,-1.935 4.512,-3.795 6.859,-5.58c2.348,-1.783 4.751,-3.488 7.212,-5.114c2.46,-1.625 4.971,-3.168 7.533,-4.628c2.562,-1.46 5.17,-2.833 7.822,-4.121Z" style="fill:#a0dcda;fill-rule:nonzero;"/>
    <path d="M574.173,160.701c21.144,16.125 40.911,34.294 61.201,51.481c8.841,7.49 54.118,44.077 57.804,50.335l-2.301,0.724c-14.764,-0.271 -29.478,-0.491 -44.247,-0.433c-7.755,0.03 -15.519,0.442 -23.27,0.285l-0.996,-1.023c-10.78,-26.95 -24.647,-53.013 -37.272,-79.174c-3.457,-7.16 -9.348,-14.371 -10.919,-22.195Z" style="fill:#47a094;fill-rule:nonzero;"/>
    <path d="M712.659,326.374c0.406,-0.63 0.654,-0.748 1.28,-1.121l0.859,0.593c7.195,3.526 75.338,51.877 79.378,57.213c3.609,1.653 6.187,3.799 9.009,6.567l-0.94,0.632c-4.533,1.472 -8.926,3.492 -13.162,5.673c-8.405,2.41 -16.551,6.003 -24.699,9.154c-5.035,1.948 -10.197,3.524 -15.236,5.441c-5.219,-11.165 -10.353,-22.211 -15.009,-33.631l-0.48,-0.069c-5.03,-0.092 -10.312,-0.935 -15.339,-1.408c-8.111,-0.763 -16.316,-1.312 -24.388,-2.397c0.423,-2.25 2.312,-5.246 3.28,-7.456c3.081,-7.038 15.695,-33.12 15.447,-39.191Z" style="fill:#0a474d;fill-rule:nonzero;"/>
    <path d="M712.659,326.374c0.406,-0.63 0.654,-0.748 1.28,-1.121l0.859,0.593c2.269,10.706 6.874,21.17 11.185,31.19c2.282,5.304 7.158,14.187 7.676,19.79c-5.03,-0.092 -10.312,-0.935 -15.339,-1.408c-8.111,-0.763 -16.316,-1.312 -24.388,-2.397c0.423,-2.25 2.312,-5.246 3.28,-7.456c3.081,-7.038 15.695,-33.12 15.447,-39.191Z" style="fill:#267d78;fill-rule:nonzero;"/>
    <path d="M734.139,376.895c20.089,0.81 40.029,4.28 60.037,6.164c3.609,1.653 6.187,3.799 9.009,6.567l-0.94,0.632c-4.533,1.472 -8.926,3.492 -13.162,5.673c-8.405,2.41 -16.551,6.003 -24.699,9.154c-5.035,1.948 -10.197,3.524 -15.236,5.441c-5.219,-11.165 -10.353,-22.211 -15.009,-33.631Z" style="fill:#267d78;fill-rule:nonzero;"/>
    <path d="M595.371,553.975c3.321,-10.499 5.471,-21.695 8.127,-32.397l15.137,-60.785c2.261,-9.196 4.987,-24.678 8.446,-32.783c13.365,3.729 26.428,8.928 39.623,13.253l0.25,0.079c-2.138,5.21 -3.318,11.09 -4.786,16.537l-8.252,30.482c-4.968,17.614 -9.774,35.273 -14.418,52.975c-2.046,7.738 -5.025,16.111 -5.989,24.005c-12.36,-4.604 -25.161,-8.895 -38.138,-11.366Z" style="fill:#598194;fill-rule:nonzero;"/>
    <path d="M690.877,263.241l2.301,-0.724c0.832,10.688 0.272,21.087 0.075,31.771c-0.135,7.337 0.03,14.697 0.068,22.036c-1.096,1.739 -2.127,3.608 -3.518,5.129c-4.602,7.49 -65.005,75.332 -70.602,78.434c-0.464,0.258 -1.03,0.256 -1.544,0.384l0.782,-4.229c0.257,-12.126 1.505,-24.85 3.067,-36.88c-0.252,-17.318 1.689,-34.444 1.933,-51.712c0.146,-10.295 0.009,-20.612 -0.046,-30.908c-0.023,-4.388 -0.473,-9.102 -0.033,-13.449c7.751,0.157 15.515,-0.255 23.27,-0.285c14.769,-0.058 29.483,0.162 44.247,0.433Z" style="fill:#003137;fill-rule:nonzero;"/>
    <path d="M618.439,396.042c0.209,0.863 0.253,1.748 0.337,2.631l-0.149,-0.282l0.477,0.554c4.64,-7.641 12.905,-15.271 18.901,-22.054c9.635,-10.973 19.391,-21.837 29.267,-32.592c7.252,-7.891 14.376,-15.87 22.531,-22.846c-4.602,7.49 -65.005,75.332 -70.602,78.434c-0.464,0.258 -1.03,0.256 -1.544,0.384l0.782,-4.229Z" style="fill:#0b243a;fill-rule:nonzero;"/>
    <path d="M623.36,263.093c7.751,0.157 15.515,-0.255 23.27,-0.285c14.769,-0.058 29.483,0.162 44.247,0.433c-14.849,20.133 -29.445,40.448 -43.786,60.946c-5.653,7.98 -11.391,15.899 -17.216,23.755c-2.73,3.707 -5.342,7.762 -8.369,11.22c-0.252,-17.318 1.689,-34.444 1.933,-51.712c0.146,-10.295 0.009,-20.612 -0.046,-30.908c-0.023,-4.388 -0.473,-9.102 -0.033,-13.449Z" style="fill:#0a474d;fill-rule:nonzero;"/>
    <path d="M433.016,40.096c1.597,0.499 2.628,1.883 3.753,3.057c11.564,6.327 21.817,17.462 31.768,26.125l47.656,41.123c11.567,10.025 23.194,19.982 34.88,29.87c7.778,6.592 16.138,12.962 23.1,20.43c1.571,7.824 7.462,15.035 10.919,22.195c12.625,26.161 26.492,52.224 37.272,79.174l-0.597,0.219c-13.218,-7.374 -26.432,-20.419 -38.223,-30.114c-27.028,-22.122 -53.888,-44.447 -80.578,-66.975l-25.75,-21.715c-5.271,-4.446 -10.448,-9.232 -16.127,-13.145c-6.51,-5.369 -25.911,-20.485 -29.875,-26.485c0.888,-1.393 1.618,-2.942 2.405,-4.397c-1.314,-4.708 -0.504,-11.849 -0.486,-16.789c0.05,-14.081 0.858,-28.552 -0.117,-42.573Z" style="fill:#47a094;fill-rule:nonzero;"/>
    <path d="M431.214,103.855c0.888,-1.393 1.618,-2.942 2.405,-4.397c46.893,40.362 94.097,80.36 141.609,119.993c7.886,6.622 28.329,26.839 36.146,30.466c3.347,2.056 9.185,8.517 10.393,12.372c-13.218,-7.374 -26.432,-20.419 -38.223,-30.114c-27.028,-22.122 -53.888,-44.447 -80.578,-66.975l-25.75,-21.715c-5.271,-4.446 -10.448,-9.232 -16.127,-13.145c-6.51,-5.369 -25.911,-20.485 -29.875,-26.485Z" style="fill:#6da0a8;fill-rule:nonzero;"/>
    <path d="M436.769,43.153c11.564,6.327 21.817,17.462 31.768,26.125l47.656,41.123c11.567,10.025 23.194,19.982 34.88,29.87c7.778,6.592 16.138,12.962 23.1,20.43c1.571,7.824 7.462,15.035 10.919,22.195c12.625,26.161 26.492,52.224 37.272,79.174l-0.597,0.219c-1.208,-3.855 -7.046,-10.316 -10.393,-12.372c0.757,-0.044 0.427,0.105 0.969,-0.493c-2.552,-6.08 -19.517,-24.612 -24.407,-30.765c-20.151,-25.363 -39.653,-51.165 -60.937,-75.609c-14.993,-17.221 -30.813,-33.87 -46.461,-50.493c-8.563,-9.096 -39.916,-41.312 -43.769,-49.404Z" style="fill:#267d78;fill-rule:nonzero;"/>
    <path d="M433.016,40.096c0.975,14.021 0.167,28.492 0.117,42.573c-0.018,4.94 -0.828,12.081 0.486,16.789c-0.787,1.455 -1.517,3.004 -2.405,4.397c-15.291,12.604 -30.069,25.909 -45.107,38.822l-93.46,79.617c-11.509,9.688 -22.67,19.905 -34.114,29.696c-3.704,3.169 -7.419,6.954 -11.331,9.815c-14.12,1.275 -28.334,1.786 -42.49,2.569c-9.663,0.533 -19.479,1.488 -29.149,1.559l-1.004,-1.321c0.769,-3.324 4.81,-6.571 7.281,-8.793c20.336,-18.288 41.532,-35.615 62.317,-53.384l106.8,-91.692l53.657,-46.331c9.224,-8.055 18.197,-17.574 28.402,-24.316Z" style="fill:#a0dcda;fill-rule:nonzero;"/>
    <path d="M265.267,545.808c56.392,50.8 110.789,103.833 167.38,154.405l100.648,-88.793c18.978,-16.553 40.596,-33.48 58.092,-51.347c1.86,-1.898 3.112,-3.562 3.984,-6.098c12.977,2.471 25.778,6.762 38.138,11.366c-3.406,6.652 -39.41,38.972 -47.466,46.567l-105.507,99.182l-31.493,29.43c-4.068,3.774 -8.266,8.502 -12.635,11.83l-0.276,-0.397c-1.303,0.022 -1.786,-0.218 -2.836,-0.994c-5.212,-3.852 -9.885,-9.072 -14.54,-13.603c-7.381,-7.098 -14.849,-14.103 -22.404,-21.015c-4.426,-4.117 -8.791,-8.694 -13.588,-12.361c-35.31,-32.425 -70.31,-65.181 -104.999,-98.269c-11.807,-11.081 -23.73,-22.007 -35.181,-33.457c-2.648,-2.648 -6.212,-5.397 -8.215,-8.543l-0.119,-1.262c2.949,-2.785 25.271,-13.066 31.017,-16.641Z" style="fill:#405874;fill-rule:nonzero;"/>
    <path d="M234.369,563.711c6.04,3.447 16.793,14.687 22.173,19.786l34.514,32.523c45.583,42.421 92.462,83.576 137.245,126.826c2.843,2.746 5.845,5.658 7.831,9.107c-1.303,0.022 -1.786,-0.218 -2.836,-0.994c-5.212,-3.852 -9.885,-9.072 -14.54,-13.603c-7.381,-7.098 -14.849,-14.103 -22.404,-21.015c-4.426,-4.117 -8.791,-8.694 -13.588,-12.361c-35.31,-32.425 -70.31,-65.181 -104.999,-98.269c-11.807,-11.081 -23.73,-22.007 -35.181,-33.457c-2.648,-2.648 -6.212,-5.397 -8.215,-8.543Z" style="fill:#6da0a8;fill-rule:nonzero;"/>
    <defs>
        <linearGradient id="_Linear1" x1="0" y1="0" x2="1" y2="0" gradientUnits="userSpaceOnUse" gradientTransform="matrix(-311.233,-548.18,548.18,-311.233,609.794,768.926)">
            <stop offset="0" style="stop-color:#000c23;stop-opacity:1"/>
            <stop offset="1" style="stop-color:#2c2c41;stop-opacity:1"/>
        </linearGradient>
        <linearGradient id="_Linear2" x1="0" y1="0" x2="1" y2="0" gradientUnits="userSpaceOnUse" gradientTransform="matrix(63.8498,289.124,-289.124,63.8498,222.696,436.615)">
            <stop offset="0" style="stop-color:#32526b;stop-opacity:1"/>
            <stop offset="1" style="stop-color:#5e8394;stop-opacity:1"/>
        </linearGradient>
        <linearGradient id="_Linear3" x1="0" y1="0" x2="1" y2="0" gradientUnits="userSpaceOnUse" gradientTransform="matrix(-370.944,-19.347,19.347,-370.944,612.427,399.245)">
            <stop offset="0" style="stop-color:#092531;stop-opacity:1"/>
            <stop offset="1" style="stop-color:#364460;stop-opacity:1"/>
        </linearGradient>
        <linearGradient id="_Linear4" x1="0" y1="0" x2="1" y2="0" gradientUnits="userSpaceOnUse" gradientTransform="matrix(-20.1662,-52.7009,52.7009,-20.1662,683.121,400.724)">
            <stop offset="0" style="stop-color:#768fa6;stop-opacity:1"/>
            <stop offset="1" style="stop-color:#67a7af;stop-opacity:1"/>
        </linearGradient>
    </defs>
</svg>